<svg xmlns="http://www.w3.org/2000/svg" viewBox="0 0 24 24">
  <defs>
    <symbol id="icon-branding" viewBox="0 0 24 24">
      <path d="M12.5 5.5l6 6a1.5 1.5 0 01-.3 2.3L9.8 20H6v-3.8l7.2-8.4a1.5 1.5 0 012.3-.3z" />
      <path d="M10 7L7 4" />
      <path d="M14 9l3-3" />
      <path d="M5 20h6" />
    </symbol>

    <symbol id="icon-web" viewBox="0 0 24 24">
      <rect x="3" y="4" width="18" height="12" rx="2" />
      <path d="M9 20h6" />
      <path d="M12 16v4" />
    </symbol>

    <symbol id="icon-growth" viewBox="0 0 24 24">
      <path d="M3 17l6-6 4 4 7-7" />
      <path d="M15 8h5v5" />
    </symbol>

    <symbol id="icon-rocket" viewBox="0 0 24 24">
      <path d="M12 4a6 6 0 016 6c0 2.5-1 5-2.6 6.6l-3.4 3.4-3.4-3.4A9 9 0 016 10a6 6 0 016-6z" />
      <path d="M12 9v4" />
      <path d="M10.5 11.5h3" />
      <path d="M8 10L5 8" />
      <path d="M16 10l3-2" />
    </symbol>

    <symbol id="icon-target" viewBox="0 0 24 24">
      <circle cx="12" cy="12" r="7" />
      <circle cx="12" cy="12" r="3" />
      <path d="M12 5V3" />
      <path d="M19 12h2" />
      <path d="M12 19v2" />
      <path d="M5 12H3" />
    </symbol>

    <symbol id="icon-eye" viewBox="0 0 24 24">
      <path d="M3 12s3.5-6 9-6 9 6 9 6-3.5 6-9 6-9-6-9-6z" />
      <circle cx="12" cy="12" r="2.5" />
    </symbol>

    <symbol id="icon-stack" viewBox="0 0 24 24">
      <path d="M12 4l8 4-8 4-8-4 8-4z" />
      <path d="M4 12l8 4 8-4" />
      <path d="M4 16l8 4 8-4" />
    </symbol>

    <symbol id="icon-analytics" viewBox="0 0 24 24">
      <path d="M4 20h16" />
      <path d="M7 16v-6" />
      <path d="M12 20V9" />
      <path d="M17 20v-9" />
      <path d="M7 10l5-5 5 3" />
    </symbol>

    <symbol id="icon-clock" viewBox="0 0 24 24">
      <circle cx="12" cy="12" r="8" />
      <path d="M12 8v5l3 2" />
    </symbol>

    <symbol id="icon-handshake" viewBox="0 0 24 24">
      <path d="M4 12l4.5-4.5a2 2 0 012.8 0l1.2 1.2a1.5 1.5 0 010 2.1L10 14" />
      <path d="M20 12l-4.5-4.5-2 2" />
      <path d="M4 12v4l3 3" />
      <path d="M20 12v4l-3 3" />
      <path d="M9.5 15.5l2.5 2.5 2.5-2.5" />
    </symbol>

    <symbol id="icon-mail" viewBox="0 0 24 24">
      <rect x="3" y="5" width="18" height="14" rx="2" />
      <path d="M4 7l8 6 8-6" />
    </symbol>

    <symbol id="icon-phone" viewBox="0 0 24 24">
      <path d="M5.5 4.5l3 1.5a2 2 0 011 1.7 11 11 0 005.8 5.8 2 2 0 011.7 1l1.5 3a1 1 0 01-1 1.5A15 15 0 014 5.5a1 1 0 011.5-1z" />
    </symbol>

    <symbol id="icon-twitter" viewBox="0 0 24 24">
      <path d="M20 7.5a6.5 6.5 0 01-2 2.1 8.5 8.5 0 01-9.4 6.8A8 8 0 014 15s2.5.1 4.1-1.4A3.5 3.5 0 016 9.5s1.6.9 3 .2a3.5 3.5 0 01-1.2-4s2.7 3 6.1 3.2c0-.2-.1-.5-.1-.7A2.8 2.8 0 0116.5 5 3 3 0 0120 8.2" />
    </symbol>

    <symbol id="icon-linkedin" viewBox="0 0 24 24">
      <rect x="4" y="9" width="4" height="11" rx="1" />
      <circle cx="6" cy="6" r="2" />
      <path d="M12 10h3a3 3 0 013 3v7h-4v-6a1.5 1.5 0 00-1.5-1.5H12z" />
    </symbol>

    <symbol id="icon-instagram" viewBox="0 0 24 24">
      <rect x="4" y="4" width="16" height="16" rx="4" />
      <circle cx="12" cy="12" r="3.5" />
      <circle cx="17" cy="7" r=".8" />
    </symbol>

    <symbol id="icon-facebook" viewBox="0 0 24 24">
      <path d="M14 8h2V4h-2a4 4 0 00-4 4v3H8v3h2v6h3v-6h3v-3h-3V8a1 1 0 011-1z" />
    </symbol>

    <symbol id="icon-globe" viewBox="0 0 24 24">
      <circle cx="12" cy="12" r="9" />
      <path d="M3 12h18" />
      <path d="M12 3a14 14 0 010 18" />
      <path d="M12 3a14 14 0 000 18" />
    </symbol>
  </defs>
</svg>
